<svg width="26" height="26" viewBox="0 0 26 26" fill="currentColor" xmlns="http://www.w3.org/2000/svg">
    <path
        d="M14.0833 8.66667V4.33333C14.0833 4.02639 14.1873 3.76928 14.3953 3.562C14.6033 3.35472 14.8604 3.25072 15.1667 3.25H21.6667C21.9736 3.25 22.2311 3.354 22.4391 3.562C22.6471 3.77 22.7507 4.02711 22.75 4.33333V8.66667C22.75 8.97361 22.646 9.23108 22.438 9.43908C22.23 9.64708 21.9729 9.75072 21.6667 9.75H15.1667C14.8597 9.75 14.6026 9.646 14.3953 9.438C14.1881 9.23 14.0841 8.97289 14.0833 8.66667ZM3.25 13V4.33333C3.25 4.02639 3.354 3.76928 3.562 3.562C3.77 3.35472 4.02711 3.25072 4.33333 3.25H10.8333C11.1403 3.25 11.3978 3.354 11.6058 3.562C11.8138 3.77 11.9174 4.02711 11.9167 4.33333V13C11.9167 13.3069 11.8127 13.5644 11.6047 13.7724C11.3967 13.9804 11.1396 14.0841 10.8333 14.0833H4.33333C4.02639 14.0833 3.76928 13.9793 3.562 13.7713C3.35472 13.5633 3.25072 13.3062 3.25 13ZM14.0833 21.6667V13C14.0833 12.6931 14.1873 12.4359 14.3953 12.2287C14.6033 12.0214 14.8604 11.9174 15.1667 11.9167H21.6667C21.9736 11.9167 22.2311 12.0207 22.4391 12.2287C22.6471 12.4367 22.7507 12.6938 22.75 13V21.6667C22.75 21.9736 22.646 22.2311 22.438 22.4391C22.23 22.6471 21.9729 22.7507 21.6667 22.75H15.1667C14.8597 22.75 14.6026 22.646 14.3953 22.438C14.1881 22.23 14.0841 21.9729 14.0833 21.6667ZM3.25 21.6667V17.3333C3.25 17.0264 3.354 16.7693 3.562 16.562C3.77 16.3547 4.02711 16.2507 4.33333 16.25H10.8333C11.1403 16.25 11.3978 16.354 11.6058 16.562C11.8138 16.77 11.9174 17.0271 11.9167 17.3333V21.6667C11.9167 21.9736 11.8127 22.2311 11.6047 22.4391C11.3967 22.6471 11.1396 22.7507 10.8333 22.75H4.33333C4.02639 22.75 3.76928 22.646 3.562 22.438C3.35472 22.23 3.25072 21.9729 3.25 21.6667ZM5.41667 11.9167H9.75V5.41667H5.41667V11.9167ZM16.25 20.5833H20.5833V14.0833H16.25V20.5833ZM16.25 7.58333H20.5833V5.41667H16.25V7.58333ZM5.41667 20.5833H9.75V18.4167H5.41667V20.5833Z"
        fill="currentColor" />
</svg>