<svg width="20" height="20" viewBox="0 0 16 16" fill="none" xmlns="http://www.w3.org/2000/svg">
<path d="M8.00033 6C7.46989 6 6.96118 6.21071 6.58611 6.58579C6.21104 6.96086 6.00033 7.46957 6.00033 8C6.00033 8.53043 6.21104 9.03914 6.58611 9.41421C6.96118 9.78929 7.46989 10 8.00033 10C8.53076 10 9.03947 9.78929 9.41454 9.41421C9.78961 9.03914 10.0003 8.53043 10.0003 8C10.0003 7.46957 9.78961 6.96086 9.41454 6.58579C9.03947 6.21071 8.53076 6 8.00033 6ZM8.00033 11.3333C7.11627 11.3333 6.26842 10.9821 5.6433 10.357C5.01818 9.7319 4.66699 8.88406 4.66699 8C4.66699 7.11595 5.01818 6.2681 5.6433 5.64298C6.26842 5.01786 7.11627 4.66667 8.00033 4.66667C8.88438 4.66667 9.73223 5.01786 10.3573 5.64298C10.9825 6.2681 11.3337 7.11595 11.3337 8C11.3337 8.88406 10.9825 9.7319 10.3573 10.357C9.73223 10.9821 8.88438 11.3333 8.00033 11.3333ZM8.00033 3C4.66699 3 1.82033 5.07333 0.666992 8C1.82033 10.9267 4.66699 13 8.00033 13C11.3337 13 14.1803 10.9267 15.3337 8C14.1803 5.07333 11.3337 3 8.00033 3Z" fill="currentColor"/>
</svg>
