<svg width="20" height="20" viewBox="0 0 20 18" fill="none" xmlns="http://www.w3.org/2000/svg">
<path d="M18.543 0.950597L17.7388 0.146348C17.5115 -0.080947 17.0919 -0.045967 16.8296 0.268704L14.0318 3.04879C12.7728 2.50681 11.3916 2.24454 9.94028 2.24454C5.62135 2.26195 1.87979 4.77977 0.0787053 8.39939C-0.0262351 8.62669 -0.0262351 8.90637 0.0787053 9.09869C0.917913 10.8123 2.17691 12.2286 3.75057 13.2951L1.46004 15.6206C1.19776 15.8829 1.16278 16.3025 1.33768 16.5298L2.14193 17.334C2.36923 17.5613 2.78885 17.5263 3.05113 17.2117L18.4029 1.85994C18.7351 1.59781 18.7701 1.17821 18.5428 0.950897L18.543 0.950597ZM10.867 6.23095C10.5697 6.16099 10.255 6.07362 9.95778 6.07362C8.4715 6.07362 7.28264 7.26262 7.28264 8.74875C7.28264 9.04601 7.3526 9.36068 7.43997 9.65795L6.26835 10.812C5.9187 10.2001 5.72638 9.51804 5.72638 8.74879C5.72638 6.4233 7.5973 4.55238 9.92279 4.55238C10.6922 4.55238 11.3741 4.7447 11.986 5.09435L10.867 6.23095Z" fill="currentColor"/>
<path d="M19.8057 8.39963C19.1937 7.17563 18.3893 6.07415 17.3928 5.18237L14.1405 8.39963V8.74928C14.1405 11.0748 12.2696 12.9457 9.94412 12.9457H9.59446L7.53125 15.0089C8.30066 15.1662 9.10491 15.2712 9.89174 15.2712C14.2107 15.2712 17.9522 12.7534 19.7533 9.11632C19.9107 8.87146 19.9107 8.62676 19.8057 8.39944L19.8057 8.39963Z" fill="currentColor"/>
</svg>
