<svg width="20" height="20" viewBox="0 0 20 20" fill="none" xmlns="http://www.w3.org/2000/svg">
<path d="M12.4998 1.66667H7.49984C7.0396 1.66667 6.6665 2.03977 6.6665 2.50001V4.16667C6.6665 4.62691 7.0396 5 7.49984 5H12.4998C12.9601 5 13.3332 4.62691 13.3332 4.16667V2.50001C13.3332 2.03977 12.9601 1.66667 12.4998 1.66667Z" stroke="#2563EB" stroke-width="2" stroke-linecap="round" stroke-linejoin="round"/>
<path d="M13.3335 3.33333H15.0002C15.4422 3.33333 15.8661 3.50892 16.1787 3.82148C16.4912 4.13404 16.6668 4.55797 16.6668 4.99999V16.6667C16.6668 17.1087 16.4912 17.5326 16.1787 17.8452C15.8661 18.1577 15.4422 18.3333 15.0002 18.3333H5.00016C4.55814 18.3333 4.13421 18.1577 3.82165 17.8452C3.50909 17.5326 3.3335 17.1087 3.3335 16.6667V4.99999C3.3335 4.55797 3.50909 4.13404 3.82165 3.82148C4.13421 3.50892 4.55814 3.33333 5.00016 3.33333H6.66683" stroke="#2563EB" stroke-width="2" stroke-linecap="round" stroke-linejoin="round"/>
<path d="M10 9.16667H13.3333" stroke="#2563EB" stroke-width="2" stroke-linecap="round" stroke-linejoin="round"/>
<path d="M10 13.3333H13.3333" stroke="#2563EB" stroke-width="2" stroke-linecap="round" stroke-linejoin="round"/>
<path d="M6.6665 9.16667H6.6765" stroke="#2563EB" stroke-width="2" stroke-linecap="round" stroke-linejoin="round"/>
<path d="M6.6665 13.3333H6.6765" stroke="#2563EB" stroke-width="2" stroke-linecap="round" stroke-linejoin="round"/>
</svg>
