<svg width="32" height="32" viewBox="0 0 32 32" fill="currentColor" xmlns="http://www.w3.org/2000/svg">
<path d="M16.0026 4.33203C16.2678 4.33203 16.5222 4.43739 16.7097 4.62492C16.8972 4.81246 17.0026 5.06681 17.0026 5.33203C17.0026 5.59725 16.8972 5.8516 16.7097 6.03914C16.5222 6.22667 16.2678 6.33203 16.0026 6.33203C13.4388 6.33203 10.9801 7.35048 9.16724 9.16333C7.35439 10.9762 6.33594 13.4349 6.33594 15.9987C6.33594 18.5625 7.35439 21.0212 9.16724 22.8341C10.9801 24.6469 13.4388 25.6654 16.0026 25.6654C16.2678 25.6654 16.5222 25.7707 16.7097 25.9583C16.8972 26.1458 17.0026 26.4001 17.0026 26.6654C17.0026 26.9306 16.8972 27.1849 16.7097 27.3725C16.5222 27.56 16.2678 27.6654 16.0026 27.6654C12.9084 27.6654 9.94095 26.4362 7.75302 24.2483C5.5651 22.0604 4.33594 19.0929 4.33594 15.9987C4.33594 12.9045 5.5651 9.93704 7.75302 7.74912C9.94095 5.56119 12.9084 4.33203 16.0026 4.33203Z" fill="currentColor"/>
<path d="M21.9626 12.7052C21.786 12.5156 21.6898 12.2649 21.6944 12.0058C21.6989 11.7467 21.8039 11.4995 21.9871 11.3163C22.1703 11.1331 22.4175 11.0282 22.6766 11.0236C22.9356 11.019 23.1864 11.1152 23.3759 11.2918L27.3759 15.2918C27.5632 15.4793 27.6684 15.7335 27.6684 15.9985C27.6684 16.2635 27.5632 16.5177 27.3759 16.7052L23.3759 20.7052C23.2844 20.8034 23.174 20.8822 23.0513 20.9369C22.9287 20.9915 22.7962 21.0209 22.662 21.0233C22.5277 21.0257 22.3943 21.001 22.2698 20.9507C22.1453 20.9004 22.0322 20.8255 21.9372 20.7305C21.8423 20.6356 21.7674 20.5225 21.7171 20.398C21.6668 20.2734 21.6421 20.1401 21.6445 20.0058C21.6469 19.8715 21.6762 19.7391 21.7309 19.6164C21.7856 19.4938 21.8644 19.3834 21.9626 19.2918L24.2559 16.9985H13.3359C13.0707 16.9985 12.8164 16.8931 12.6288 16.7056C12.4413 16.5181 12.3359 16.2637 12.3359 15.9985C12.3359 15.7333 12.4413 15.4789 12.6288 15.2914C12.8164 15.1039 13.0707 14.9985 13.3359 14.9985H24.2559L21.9626 12.7052Z" fill="currentColor"/>
</svg>
