<svg width="26" height="26" viewBox="0 0 26 26" fill="currentColor" xmlns="http://www.w3.org/2000/svg">
<path fill-rule="evenodd" clip-rule="evenodd" d="M12.5352 20.6866H4.58144C4.53214 20.6866 4.4847 20.6661 4.45028 20.6317C4.41493 20.5964 4.39539 20.5499 4.39539 20.5005V19.1507C4.39539 18.3786 4.94704 17.6977 5.7973 17.119C7.31548 16.0827 9.7723 15.4297 12.5352 15.4297C12.9203 15.4297 13.2329 15.1171 13.2329 14.732C13.2329 14.3478 12.9203 14.0343 12.5352 14.0343C9.44485 14.0343 6.70895 14.8073 5.01029 15.9655C3.71444 16.8493 3 17.9721 3 19.1507V20.5005C3 20.9192 3.16652 21.322 3.46327 21.6187C3.76002 21.9145 4.1619 22.082 4.58144 22.082H12.5352C12.9203 22.0811 13.2329 21.7685 13.2329 21.3834C13.2329 20.9992 12.9203 20.6857 12.5352 20.6866Z" fill="currentColor"/>
<path fill-rule="evenodd" clip-rule="evenodd" d="M12.5344 2.99971C9.71013 2.99971 7.41797 5.29187 7.41797 8.11615C7.41797 10.9404 9.71013 13.2326 12.5344 13.2326C15.3587 13.2326 17.6508 10.9404 17.6508 8.11615C17.6508 5.29187 15.3587 2.99971 12.5344 2.99971ZM12.5344 4.3951C14.5884 4.3951 16.2555 6.06213 16.2555 8.11615C16.2555 10.1702 14.5884 11.8372 12.5344 11.8372C10.4804 11.8372 8.81336 10.1702 8.81336 8.11615C8.81336 6.06213 10.4804 4.3951 12.5344 4.3951Z" fill="currentColor"/>
<path fill-rule="evenodd" clip-rule="evenodd" d="M18.1163 14.8029C16.2874 14.8029 14.8027 16.2876 14.8027 18.1164C14.8027 19.9453 16.2874 21.431 18.1163 21.431C19.9452 21.431 21.4308 19.9453 21.4308 18.1164C21.4308 16.2876 19.9452 14.8029 18.1163 14.8029ZM18.1163 16.1982C19.175 16.1982 20.0355 17.0578 20.0355 18.1164C20.0355 19.1751 19.175 20.0356 18.1163 20.0356C17.0577 20.0356 16.1972 19.1751 16.1972 18.1164C16.1972 17.0578 17.0577 16.1982 18.1163 16.1982Z" fill="currentColor"/>
<path fill-rule="evenodd" clip-rule="evenodd" d="M18.8153 15.4996V13.9302C18.8153 13.5451 18.5027 13.2325 18.1176 13.2325C17.7325 13.2325 17.4199 13.5451 17.4199 13.9302V15.5005C17.4199 15.8847 17.7325 16.1982 18.1176 16.1982C18.5027 16.1973 18.8153 15.8847 18.8153 15.4996Z" fill="currentColor"/>
<path fill-rule="evenodd" clip-rule="evenodd" d="M20.4603 16.7601L21.5701 15.6494C21.8426 15.3777 21.8426 14.9349 21.5701 14.6633C21.2984 14.3907 20.8556 14.3907 20.584 14.6633L19.4733 15.7731C19.2016 16.0457 19.2016 16.4875 19.4733 16.7601C19.7458 17.0317 20.1877 17.0317 20.4603 16.7601Z" fill="currentColor"/>
<path fill-rule="evenodd" clip-rule="evenodd" d="M20.7319 18.8141H22.3022C22.6873 18.8141 22.9999 18.5015 22.9999 18.1164C22.9999 17.7312 22.6873 17.4187 22.3022 17.4187H20.7319C20.3477 17.4187 20.0352 17.7312 20.0352 18.1164C20.0342 18.5015 20.3477 18.8141 20.7319 18.8141Z" fill="currentColor"/>
<path fill-rule="evenodd" clip-rule="evenodd" d="M19.4733 20.4598L20.584 21.5696C20.8556 21.8421 21.2984 21.8421 21.5701 21.5696C21.8426 21.2979 21.8426 20.8551 21.5701 20.5835L20.4603 19.4728C20.1877 19.2011 19.7458 19.2011 19.4733 19.4728C19.2016 19.7453 19.2016 20.1872 19.4733 20.4598Z" fill="currentColor"/>
<path fill-rule="evenodd" clip-rule="evenodd" d="M17.4199 20.7322V22.3025C17.4199 22.6877 17.7325 23.0002 18.1176 23.0002C18.5027 23.0002 18.8153 22.6877 18.8153 22.3025V20.7322C18.8153 20.348 18.5027 20.0355 18.1176 20.0345C17.7325 20.0345 17.4199 20.348 17.4199 20.7322Z" fill="currentColor"/>
<path fill-rule="evenodd" clip-rule="evenodd" d="M15.7732 19.4728L14.6634 20.5835C14.3908 20.8551 14.3908 21.2979 14.6634 21.5696C14.935 21.8421 15.3778 21.8421 15.6495 21.5696L16.7602 20.4598C17.0319 20.1872 17.0319 19.7453 16.7602 19.4728C16.4877 19.2011 16.0458 19.2011 15.7732 19.4728Z" fill="currentColor"/>
<path fill-rule="evenodd" clip-rule="evenodd" d="M15.5004 17.4187H13.9311C13.546 17.4187 13.2334 17.7312 13.2334 18.1164C13.2334 18.5015 13.546 18.8141 13.9311 18.8141H15.5004C15.8856 18.8141 16.1991 18.5015 16.1981 18.1164C16.1981 17.7312 15.8856 17.4187 15.5004 17.4187Z" fill="currentColor"/>
<path fill-rule="evenodd" clip-rule="evenodd" d="M16.7602 15.7731L15.6495 14.6633C15.3778 14.3907 14.935 14.3907 14.6634 14.6633C14.3908 14.9349 14.3908 15.3777 14.6634 15.6494L15.7732 16.7601C16.0458 17.0317 16.4877 17.0317 16.7602 16.7601C17.0319 16.4875 17.0319 16.0457 16.7602 15.7731Z" fill="currentColor"/>
</svg>
